<?xml version="1.0" encoding="utf-8"?>
<!-- Generator: Adobe Illustrator 26.1.0, SVG Export Plug-In . SVG Version: 6.00 Build 0)  -->
<svg version="1.1" id="Layer_1" xmlns="http://www.w3.org/2000/svg" xmlns:xlink="http://www.w3.org/1999/xlink" x="0px" y="0px"
	 viewBox="0 0 512 512" style="enable-background:new 0 0 512 512;" xml:space="preserve">
<style type="text/css">
	.st0{fill:#7952B3;}
	.st1{fill:#FFFFFF;}
</style>
<rect class="st0" width="512" height="512"/>
<path class="st1" d="M143.5,340.4c0,5.2,4.2,9.4,9.4,9.4h234.4c10.4,0,18.8,8.4,18.8,18.8s-8.4,18.8-18.8,18.8H152.9
	c-25.9,0-46.9-21-46.9-46.9v-197c0-10.4,8.4-18.8,18.8-18.8s18.8,8.4,18.8,18.8L143.5,340.4L143.5,340.4z M306.7,269.2
	c-7.3,7.3-19.2,7.3-26.5,0l-33.6-33.6L194.2,288c-7.3,7.3-19.2,7.3-26.5,0s-7.3-19.2,0-26.5l65.6-65.6c7.3-7.3,19.2-7.3,26.5,0
	l33.6,33.6l61.8-61.7c7.3-7.3,19.2-7.3,26.5,0s7.3,19.2,0,26.5L306.7,269.2z"/>
</svg>
