<svg xmlns="http://www.w3.org/2000/svg" viewBox="0 0 644.66 208.16"><defs><style>.cls-1{fill:#7a51b4;}.cls-2{fill:#3a383f;}</style></defs><g id="Layer_2" data-name="Layer 2"><g id="Layer_1-2" data-name="Layer 1"><path class="cls-1" d="M48.3,61.77,59.84,73l.77-.47a37.08,37.08,0,0,1,49,9.06l.34.46h18.34l-.83-1.67A52.94,52.94,0,0,0,80.09,51.17,52.49,52.49,0,0,0,49.43,61Z"/><path class="cls-2" d="M114.25,144.49a53.17,53.17,0,0,0,9.42-10.4c.68-1,1.34-2,2-3.07l1-1.74H107.28l-.34.36a37.41,37.41,0,0,1-15.56,9.76l-.17,0a37.06,37.06,0,0,1-40.43-58l.63-.81-19.49-19A63.91,63.91,0,0,1,74.7,40.06l1-.09V0H62.11V26A80.19,80.19,0,0,0,11.6,62.55l-.48.78L31.47,83.19a52.37,52.37,0,0,0-3.93,14.73,54.63,54.63,0,0,0-.35,6.16,52.89,52.89,0,0,0,87.06,40.41Z"/><path class="cls-1" d="M63.55,166.18A64.37,64.37,0,0,1,18.14,87l.18-.65L5.78,74.1l-.62,1.65a80.13,80.13,0,0,0,57,106.39v26H75.75v-40l-1-.09A64.68,64.68,0,0,1,63.55,166.18Z"/><path class="cls-1" d="M160.19,104.08A80.1,80.1,0,0,0,98.09,26V0H84.44V40l1.06.09a64.27,64.27,0,0,1,52.15,92.59,72.45,72.45,0,0,1-14.57,19.24l0,0-.83.72a64.37,64.37,0,0,1-11.16,7.79,63.55,63.55,0,0,1-14.42,5.8,64.68,64.68,0,0,1-11.15,1.92l-1,.09v40H98.09v-25.9c8.59-1,17.63-5.88,23.81-9.86l.91-.58c2-1.26,3.79-2.44,5.48-3.59l.05,0a51.38,51.38,0,0,0,5-3.83l.25-.22c7.85-6.68,12.68-14.34,16.37-20.95l.73-1.34h0A80.22,80.22,0,0,0,160.19,104.08Z"/><path class="cls-1" d="M593.61,163.54a2.22,2.22,0,0,1-4.44,0A2.22,2.22,0,0,1,593.61,163.54Z"/><path class="cls-1" d="M601.45,143.92v21.57h-3.74V143.92Z"/><path class="cls-1" d="M608.85,146a2.22,2.22,0,0,1-4.44,0A2.22,2.22,0,0,1,608.85,146Zm-4.1,4.22v15.28h3.76V150.21Z"/><path class="cls-1" d="M627.68,150.25l-6.48,15.3h-4.08l-6.51-15.3h4.11l2.1,5,2.34,6.42,2.31-6.35,2.1-5.09Z"/><path class="cls-1" d="M632.71,159.22c.25,1.89,1.88,3.24,4.53,3.24a6.28,6.28,0,0,0,4.08-1.42l2.4,2.38a9.31,9.31,0,0,1-6.54,2.47c-5.24,0-8.36-3.24-8.36-8.12,0-4.62,3.15-8,8.09-8,5.09,0,8.26,3.15,7.68,9.41Zm8.27-3.11c-.25-2-1.79-3-4-3a4.09,4.09,0,0,0-4.26,3Z"/><rect class="cls-1" x="182.08" y="156.79" width="401.03" height="2.76"/><path class="cls-2" d="M230,121.69a27.87,27.87,0,0,1-20.08,7.85c-19.62,0-27.92-13.52-28-27.25s8.91-27.86,28-27.86a27.24,27.24,0,0,1,19.4,8.08l-6.64,6.42a18.14,18.14,0,0,0-12.76-5c-12.75,0-18.26,9.51-18.19,18.35s5.14,17.89,18.19,17.89a19.46,19.46,0,0,0,13.29-5.36Z"/><path class="cls-2" d="M241.11,91.11l.68,4.31c2.87-4.61,6.72-5.29,10.49-5.29a14.12,14.12,0,0,1,9.59,3.55l-4.16,8a9.2,9.2,0,0,0-6.64-2.41c-4.83,0-9.28,2.56-9.28,9.43v19.63h-9.21V91.11Z"/><path class="cls-2" d="M305.19,91.11l-22.72,52.77H272.36l6.94-16.16L264.43,91.11h10.72l5.66,16.08,3.55,10.49,3.85-10.26L295,91.11Z"/><path class="cls-2" d="M310,143.88V91.11h8.61l.6,5.14a14.8,14.8,0,0,1,12.08-6c11.47,0,19.1,8.53,19.1,19.48s-6.87,19.47-18.8,19.47c-3.92,0-9.74-1.2-12.38-5.28v19.93Zm31.18-34.12c0-5.81-3.93-10.57-10.57-10.57s-10.57,4.76-10.57,10.57a10.57,10.57,0,1,0,21.14,0Z"/><path class="cls-2" d="M370.18,80.62V91.19h10.27v7.93H370.11v16.07c0,3.55,2,5.29,4.83,5.29a10.66,10.66,0,0,0,4.45-1.13L382,127.2a20.58,20.58,0,0,1-7.63,1.58c-8.07.3-13.36-4.3-13.36-13.59V99.12H354V91.19H361V81.6Z"/><path class="cls-2" d="M424.3,109.76c0,10.72-7.32,19.4-19.4,19.4s-19.32-8.68-19.32-19.4,7.4-19.4,19.25-19.4S424.3,99.12,424.3,109.76Zm-29.51,0c0,5.66,3.4,10.94,10.11,10.94S415,115.42,415,109.76s-3.93-11-10.12-11C398.26,98.74,394.79,104.17,394.79,109.76Z"/><path class="cls-2" d="M483.1,101.23a29.87,29.87,0,0,1-4.9,17.21l6.26,6.19-7,7L471,125.31c-4,2.56-9.06,3.92-15,3.92-18.8,0-27.1-13.66-27.18-27.4S437.44,74.21,456,74.21,482.88,87.64,483.1,101.23Zm-44.45.83c.15,8.68,5.88,18,17.36,18,11.92,0,17.66-10,17.28-19.09-.38-8.53-4.83-17.74-17.28-17.74S438.49,93.15,438.65,102.06Z"/><path class="cls-2" d="M499.11,91.11v19.48c0,5.66,3.09,10,9,10,5.66,0,9.51-4.75,9.51-10.41v-19h9.13V128.4h-8.22l-.61-5.05c-3.85,3.77-7.39,5.58-12.6,5.58-8.91,0-15.4-6.72-15.4-18.27V91.11Z"/><path class="cls-2" d="M571.87,109.76c0,10.72-7.32,19.4-19.4,19.4s-19.32-8.68-19.32-19.4,7.4-19.4,19.25-19.4S571.87,99.12,571.87,109.76Zm-29.51,0c0,5.66,3.4,10.94,10.11,10.94s10.12-5.28,10.12-10.94-3.93-11-10.12-11C545.83,98.74,542.36,104.17,542.36,109.76Z"/><path class="cls-2" d="M590.44,80.62V91.19h10.27v7.93H590.37v16.07c0,3.55,2,5.29,4.83,5.29a10.66,10.66,0,0,0,4.45-1.13l2.57,7.85a20.58,20.58,0,0,1-7.63,1.58c-8.07.3-13.36-4.3-13.36-13.59V99.12h-6.94V91.19h6.94V81.6Z"/><path class="cls-2" d="M615.43,113c.6,4.61,4.6,7.93,11.09,7.93,3.4,0,7.85-1.28,10-3.47l5.88,5.81c-3.92,4.08-10.34,6-16,6-12.83,0-20.45-7.93-20.45-19.85,0-11.33,7.7-19.48,19.77-19.48,12.46,0,20.23,7.7,18.8,23Zm20.23-7.62c-.61-4.83-4.38-7.25-9.67-7.25-5,0-9,2.42-10.41,7.25Z"/></g></g></svg>